<?xml version="1.0" standalone="no"?><!DOCTYPE svg PUBLIC "-//W3C//DTD SVG 1.1//EN" "http://www.w3.org/Graphics/SVG/1.1/DTD/svg11.dtd"><svg t="1652861938446" class="icon" viewBox="0 0 1024 1024" version="1.1" xmlns="http://www.w3.org/2000/svg" p-id="2835" xmlns:xlink="http://www.w3.org/1999/xlink" width="200" height="200"><defs><style type="text/css">@font-face { font-family: feedback-iconfont; src: url("//at.alicdn.com/t/font_1031158_u69w8yhxdu.woff2?t=1630033759944") format("woff2"), url("//at.alicdn.com/t/font_1031158_u69w8yhxdu.woff?t=1630033759944") format("woff"), url("//at.alicdn.com/t/font_1031158_u69w8yhxdu.ttf?t=1630033759944") format("truetype"); }
</style></defs><path d="M916.2 342.5c-20.5-44-49.8-83.4-87-117.3-37.1-33.7-80.3-60.1-128.3-78.6-49.6-19-102.3-28.7-156.5-28.7s-106.9 9.6-156.5 28.7c-48.1 18.4-91.2 44.9-128.3 78.6-37.3 33.8-66.5 73.3-87 117.3-21.3 45.7-32.1 94.3-32.1 144.4 0 64.9 18.6 128.5 53.8 184.3-3.4 5.8-13.2 19.3-40.9 45.9-23.1 22.1-48.8 43.8-62.1 54.8-8.8 7.3-11.7 19.7-7 30.1 4.7 10.4 15.9 16.4 27.2 14.6 23.7-3.7 70-10.9 114.9-16.2 71.8-8.5 90.7-6.5 95-5.6 66.1 40 143.1 61.2 222.8 61.2 54.3 0 106.9-9.7 156.7-28.8 48.1-18.4 91.2-44.9 128.3-78.6 37.3-33.8 66.5-73.3 87-117.3 21.3-45.7 32.1-94.3 32.1-144.4 0-50.1-10.8-98.7-32.1-144.4zM799.5 716.1C731.4 777.9 640.8 812 544.3 812c-72.2 0-141.8-19.2-201.3-55.6-5.6-3.4-13.5-6.4-36.3-6.4-16.8 0-41.6 1.6-79.3 6.1-20 2.3-40.4 4.9-59.3 7.6 8.3-7.6 16.7-15.6 24.7-23.5 15.3-15.2 26.4-27.8 34-38.5 5.1-7.3 20.8-29.4 8.2-48.5-33.1-50.1-50.6-107.6-50.6-166.3 0-86.5 37.2-167.9 104.6-229.2 68.1-61.8 158.7-95.9 255.2-95.9s187.1 34 255.2 95.9C866.9 319 904 400.5 904 486.9s-37.1 167.8-104.5 229.2z" p-id="2836" fill="#bfbfbf"></path><path d="M333.148546 513.345477a37.4 37.4 0 1 0 52.890665-52.89251 37.4 37.4 0 1 0-52.890665 52.89251Z" p-id="2837" fill="#bfbfbf"></path><path d="M510.017144 495.463505a37.4 37.4 0 1 0 72.797982-17.189933 37.4 37.4 0 1 0-72.797982 17.189933Z" p-id="2838" fill="#bfbfbf"></path><path d="M733.3 486.9m-37.4 0a37.4 37.4 0 1 0 74.8 0 37.4 37.4 0 1 0-74.8 0Z" p-id="2839" fill="#bfbfbf"></path></svg>